<svg width="40" height="40" viewBox="0 0 40 40" fill="none" xmlns="http://www.w3.org/2000/svg">
<path d="M10.75 1H29.5M10.75 1L7.5 4.75M10.75 1L16.0146 8.5M29.5 1L33.25 4.75M29.5 1C29.5 1.2 26.335 6.08333 24.7524 8.5M33.25 4.75V35.25M33.25 4.75L26.5 10.7204M33.25 35.25L29.75 39M33.25 35.25L26.5 28.7796M29.75 39H11M29.75 39L24.8689 31M11 39L7.5 35.25M11 39L16.1311 31M7.5 35.25V4.75M7.5 35.25L14.5 28.7796M7.5 4.75L14.5 10.7204M16.0146 8.5H24.7524M16.0146 8.5L14.5 10.7204M24.7524 8.5L26.5 10.7204M26.5 10.7204V28.7796M26.5 28.7796L24.8689 31M24.8689 31H16.1311M16.1311 31L14.5 28.7796M14.5 28.7796V10.7204M12.2136 3.5H27.8689L31 6.75658V33.2434L28.0777 36.5H12.4223L9.5 33.2434V6.75658L12.2136 3.5ZM14.1456 6H26.5243L29 8.76316V31.2368L26.6893 34H14.3107L12 31.2368V8.76316L14.1456 6Z" stroke="#5A1B2A" stroke-width="0.8"/>
</svg>
