<svg xmlns="http://www.w3.org/2000/svg" width="80" height="80" viewBox="0 0 80 80" fill="none">
<g transform="translate(11.42857 10.00000) scale(1.42857)" stroke-linecap="round" stroke-linejoin="round">
<path d="M20.527 0.745056L7.36914 21.0082M20.527 0.745056L33.1586 21.0082M20.527 0.745056V5.74506M7.36914 21.0082L20.527 40.4819M7.36914 21.0082H13.6849M20.527 40.4819L33.1586 21.0082M20.527 40.4819V31.0082M33.1586 21.0082H26.8428M20.527 10.7451L26.8428 21.0082M20.527 10.7451L13.6849 21.0082M20.527 10.7451V5.74506M26.8428 21.0082L20.527 31.0082M20.527 31.0082L13.6849 21.0082M20.527 5.74506L30.0007 21.0082L20.527 36.0082L10.7902 21.0082L20.527 5.74506Z" stroke="#5A1B2A" stroke-width="1.1" vector-effect="non-scaling-stroke" />
</g>
<path d="M66 8V12M64 10H68" stroke="#5A1B2A" stroke-width=".7" stroke-linecap="round"/>
</svg>
