<svg xmlns="http://www.w3.org/2000/svg" width="80" height="80" viewBox="0 0 80 80" fill="none">
<g transform="translate(8.62361 8.00000) scale(1.56882)" stroke-linecap="round" stroke-linejoin="round">
<path d="M33.1576 20.4C33.1576 20.3867 33.1576 20.3733 33.1576 20.3599M33.1576 20.4C33.1576 23.3057 32.7499 26.0666 32.0168 28.5579M33.1576 20.4L25.5193 24.1914M6.8418 20.4C6.8418 17.4944 7.24945 14.7334 7.98257 12.2421M6.8418 20.4C6.8418 23.3057 7.24945 26.0666 7.98257 28.5579M6.8418 20.4L14.48 16.4527M6.8418 20.4L14.48 24.1914M19.9997 0.400024C19.9915 0.400024 19.9833 0.400036 19.9751 0.400059C19.0737 0.402564 18.1936 0.542831 17.3434 0.807747C16.5325 1.06043 15.7488 1.42651 14.9997 1.89461M19.9997 0.400024C21.2814 0.400024 22.5203 0.678579 23.6916 1.19803C24.0464 1.35535 24.3949 1.53475 24.7365 1.73521M19.9997 0.400024V10.4M33.1576 20.3599C33.154 17.5875 32.7793 14.9475 32.105 12.5485M33.1576 20.3599L25.7582 16.4527M19.9751 40.4C19.9833 40.4 19.9915 40.4 19.9997 40.4C21.2814 40.4 22.5203 40.1215 23.6916 39.602C24.2305 39.3631 24.755 39.0731 25.2628 38.7359M19.9751 40.4C19.0737 40.3975 18.1936 40.2572 17.3434 39.9923C16.437 39.7099 15.5646 39.2858 14.7365 38.7359M19.9751 40.4L19.9904 29.6106M28.7375 35.3537C30.1246 33.4797 31.2491 31.1667 32.0168 28.5579M28.7375 35.3537L19.9904 29.6106M28.7375 35.3537C27.7104 36.7412 26.5394 37.888 25.2628 38.7359M28.7375 35.3537L25.5193 24.1914M11.2343 35.3163C9.85991 33.449 8.74516 31.1494 7.98257 28.5579M11.2343 35.3163L19.9904 29.6106M11.2343 35.3163C12.268 36.7207 13.4485 37.8804 14.7365 38.7359M11.2343 35.3163L14.48 24.1914M28.5917 5.25236C30.1006 7.23155 31.3107 9.72281 32.105 12.5485M28.5917 5.25236L25.7582 16.4527M28.5917 5.25236L19.9997 10.4M28.5917 5.25236C27.4587 3.76618 26.1571 2.56873 24.7365 1.73521M19.9997 17.5242L18.9471 19.3474M19.9997 17.5242L21.0523 19.3474M19.9997 17.5242V10.4M18.9471 19.3474V21.1895M18.9471 19.3474L14.48 16.4527M18.9471 21.1895L19.9997 23.0127M18.9471 21.1895L14.48 24.1914M19.9997 23.0127L21.0523 21.1895M19.9997 23.0127L19.9904 29.6106M21.0523 21.1895V19.3474M21.0523 21.1895L25.5193 24.1914M21.0523 19.3474L25.7582 16.4527M32.105 12.5485L25.7582 16.4527M32.0168 28.5579L25.5193 24.1914M7.98257 12.2421C8.77188 9.55992 9.93844 7.19028 11.3797 5.28911C11.5308 5.08986 11.6848 4.89574 11.8418 4.70696M7.98257 12.2421L14.48 16.4527M7.98257 28.5579L14.48 24.1914M19.9904 29.6106L14.7365 38.7359M19.9904 29.6106L25.2628 38.7359M11.8418 4.70696L14.48 16.4527M11.8418 4.70696L19.9997 10.4M11.8418 4.70696C12.7961 3.55923 13.8576 2.60833 14.9997 1.89461M19.9997 10.4L14.9997 1.89461M19.9997 10.4L24.7365 1.73521" stroke="#5A1B2A" stroke-width="1.1" vector-effect="non-scaling-stroke" />
</g>
</svg>
